<svg width="45" height="45" fill="none" xmlns="http://www.w3.org/2000/svg"><path d="M10 3h25v25H10z"/><circle cx="22.5" cy="15.5" r="12.5" fill="url(#paint0_linear)" filter="url(#filter0_d)"/><path d="M17 9h11v13H17z"/><path clip-rule="evenodd" d="M26.39 18.306a5.418 5.418 0 0 0 0-7.71 5.535 5.535 0 0 0-7.78 0 5.418 5.418 0 0 0 0 7.71L22.5 22l3.89-3.694z" stroke="#fff" stroke-linecap="round" stroke-linejoin="round"/><path clip-rule="evenodd" d="M22.5 16.475a1.946 1.946 0 0 0 1.941-1.95c0-1.077-.869-1.95-1.941-1.95a1.946 1.946 0 0 0-1.941 1.95c0 1.077.869 1.95 1.941 1.95z" stroke="#fff" stroke-linecap="round" stroke-linejoin="round"/><defs><filter id="filter0_d" x="0" y="0" width="45" height="45" filterUnits="userSpaceOnUse" color-interpolation-filters="sRGB"><feFlood flood-opacity="0" result="BackgroundImageFix"/><feColorMatrix in="SourceAlpha" values="0 0 0 0 0 0 0 0 0 0 0 0 0 0 0 0 0 0 255 0"/><feOffset dy="7"/><feGaussianBlur stdDeviation="5"/><feColorMatrix values="0 0 0 0 0.027451 0 0 0 0 0.32549 0 0 0 0 0.568627 0 0 0 0.7 0"/><feBlend in2="BackgroundImageFix" result="effect1_dropShadow"/><feBlend in="SourceGraphic" in2="effect1_dropShadow" result="shape"/></filter><linearGradient id="paint0_linear" x1="30" y1="6" x2="13" y2="23" gradientUnits="userSpaceOnUse"><stop stop-color="#F49C19"/><stop offset="1" stop-color="#ED6D1A"/></linearGradient></defs></svg>