<svg width="25" height="25" fill="none" xmlns="http://www.w3.org/2000/svg"><circle cx="12.5" cy="12.5" r="12.5" fill="url(#paint0_linear)"/><path clip-rule="evenodd" d="M16.39 15.306a5.418 5.418 0 0 0 0-7.71 5.535 5.535 0 0 0-7.78 0 5.418 5.418 0 0 0 0 7.71L12.5 19l3.89-3.694z" stroke="#fff" stroke-linecap="round" stroke-linejoin="round"/><path clip-rule="evenodd" d="M12.5 13.475a1.946 1.946 0 0 0 1.941-1.95c0-1.077-.869-1.95-1.941-1.95a1.946 1.946 0 0 0-1.941 1.95c0 1.077.869 1.95 1.941 1.95z" stroke="#fff" stroke-linecap="round" stroke-linejoin="round"/><defs><linearGradient id="paint0_linear" x1="20" y1="3" x2="3" y2="20" gradientUnits="userSpaceOnUse"><stop stop-color="#F49C19"/><stop offset="1" stop-color="#ED6D1A"/></linearGradient></defs></svg>