<svg width="45" height="45" fill="none" xmlns="http://www.w3.org/2000/svg"><path d="M10 3h25v25H10z"/><circle cx="22.5" cy="15.5" r="12.5" fill="url(#paint0_linear)" filter="url(#filter0_d)"/><path d="M16 11h13v9H16z"/><rect x="16" y="11" width="13" height="9" rx="1" stroke="#fff"/><path clip-rule="evenodd" d="M22.5 17.107l-5.394-3.201A2.259 2.259 0 0 1 16 11.963c0-.532.437-.963.973-.963h11.054c.536 0 .973.431.973.963 0 .798-.42 1.536-1.106 1.943L22.5 17.107z" stroke="#fff" stroke-linecap="round" stroke-linejoin="round"/><defs><filter id="filter0_d" x="0" y="0" width="45" height="45" filterUnits="userSpaceOnUse" color-interpolation-filters="sRGB"><feFlood flood-opacity="0" result="BackgroundImageFix"/><feColorMatrix in="SourceAlpha" values="0 0 0 0 0 0 0 0 0 0 0 0 0 0 0 0 0 0 255 0"/><feOffset dy="7"/><feGaussianBlur stdDeviation="5"/><feColorMatrix values="0 0 0 0 0.027451 0 0 0 0 0.32549 0 0 0 0 0.568627 0 0 0 0.7 0"/><feBlend in2="BackgroundImageFix" result="effect1_dropShadow"/><feBlend in="SourceGraphic" in2="effect1_dropShadow" result="shape"/></filter><linearGradient id="paint0_linear" x1="30" y1="6" x2="13" y2="23" gradientUnits="userSpaceOnUse"><stop stop-color="#F49C19"/><stop offset="1" stop-color="#ED6D1A"/></linearGradient></defs></svg>