<svg width="25" height="25" fill="none" xmlns="http://www.w3.org/2000/svg"><circle cx="12.5" cy="12.5" r="12.5" fill="url(#paint0_linear)"/><path clip-rule="evenodd" d="M18.62 15.968c.508.423.508 1.103-.007 1.524l-1.249 1.021c-.511.419-1.44.613-2.063.4 0 0-2.516-.475-5.63-3.588-3.115-3.114-3.59-5.629-3.59-5.629-.198-.627-.021-1.548.4-2.062l1.021-1.248c.42-.512 1.101-.515 1.525-.007l1.543 1.85c.282.339.314.908.068 1.276l-.686 1.028s.009 1.7 1.41 3.1c1.402 1.402 3.102 1.41 3.102 1.41l1.028-.685c.367-.244.94-.212 1.277.068l1.85 1.542z" stroke="#fff" stroke-linecap="round" stroke-linejoin="round"/><defs><linearGradient id="paint0_linear" x1="20" y1="3" x2="3" y2="20" gradientUnits="userSpaceOnUse"><stop stop-color="#F49C19"/><stop offset="1" stop-color="#ED6D1A"/></linearGradient></defs></svg>