<svg width="45" height="45" fill="none" xmlns="http://www.w3.org/2000/svg"><path d="M10 3h25v25H10z"/><circle cx="22.5" cy="15.5" r="12.5" fill="url(#paint0_linear)" filter="url(#filter0_d)"/><path d="M16 9h13v13H16z"/><path clip-rule="evenodd" d="M28.62 18.968c.508.423.508 1.103-.007 1.524l-1.249 1.021c-.511.419-1.44.613-2.063.4 0 0-2.516-.475-5.63-3.588-3.115-3.114-3.59-5.629-3.59-5.629-.198-.627-.021-1.548.4-2.062l1.021-1.248c.42-.512 1.101-.515 1.525-.007l1.543 1.85c.282.339.314.908.068 1.277l-.686 1.027s.009 1.7 1.41 3.1c1.402 1.402 3.102 1.41 3.102 1.41l1.028-.685c.367-.244.94-.212 1.277.068l1.85 1.542z" stroke="#fff" stroke-linecap="round" stroke-linejoin="round"/><defs><filter id="filter0_d" x="0" y="0" width="45" height="45" filterUnits="userSpaceOnUse" color-interpolation-filters="sRGB"><feFlood flood-opacity="0" result="BackgroundImageFix"/><feColorMatrix in="SourceAlpha" values="0 0 0 0 0 0 0 0 0 0 0 0 0 0 0 0 0 0 255 0"/><feOffset dy="7"/><feGaussianBlur stdDeviation="5"/><feColorMatrix values="0 0 0 0 0.027451 0 0 0 0 0.32549 0 0 0 0 0.568627 0 0 0 0.7 0"/><feBlend in2="BackgroundImageFix" result="effect1_dropShadow"/><feBlend in="SourceGraphic" in2="effect1_dropShadow" result="shape"/></filter><linearGradient id="paint0_linear" x1="30" y1="6" x2="13" y2="23" gradientUnits="userSpaceOnUse"><stop stop-color="#F49C19"/><stop offset="1" stop-color="#ED6D1A"/></linearGradient></defs></svg>